<mxfile host="app.diagrams.net" agent="Mozilla/5.0 (Macintosh; Intel Mac OS X 10_15_7) AppleWebKit/537.36 (KHTML, like Gecko) Chrome/134.0.0.0 Safari/537.36 Edg/134.0.0.0" version="26.0.16">
  <diagram name="Page-1" id="IZCaYiZ_SK3Mu-KeCe-O">
    <mxGraphModel dx="1026" dy="1562" grid="1" gridSize="10" guides="1" tooltips="1" connect="1" arrows="1" fold="1" page="1" pageScale="1" pageWidth="850" pageHeight="1100" math="0" shadow="0">
      <root>
        <mxCell id="0" />
        <mxCell id="1" parent="0" />
        <mxCell id="QkDVzwYt-QcM5cL4TlEO-5" value="Frontend" style="rounded=1;whiteSpace=wrap;html=1;" vertex="1" parent="1">
          <mxGeometry x="130" y="-270" width="120" height="60" as="geometry" />
        </mxCell>
        <mxCell id="QkDVzwYt-QcM5cL4TlEO-13" value="" style="group" vertex="1" connectable="0" parent="1">
          <mxGeometry x="250" y="-470" width="350" height="140" as="geometry" />
        </mxCell>
        <mxCell id="QkDVzwYt-QcM5cL4TlEO-10" value="" style="rounded=1;whiteSpace=wrap;html=1;" vertex="1" parent="QkDVzwYt-QcM5cL4TlEO-13">
          <mxGeometry width="350" height="140" as="geometry" />
        </mxCell>
        <mxCell id="QkDVzwYt-QcM5cL4TlEO-6" value="Heatmap&lt;div&gt;Orchestrate&lt;/div&gt;" style="rounded=1;whiteSpace=wrap;html=1;" vertex="1" parent="QkDVzwYt-QcM5cL4TlEO-13">
          <mxGeometry x="35" y="40" width="120" height="60" as="geometry" />
        </mxCell>
        <mxCell id="QkDVzwYt-QcM5cL4TlEO-9" value="CTR Service" style="rounded=1;whiteSpace=wrap;html=1;" vertex="1" parent="QkDVzwYt-QcM5cL4TlEO-13">
          <mxGeometry x="190" y="40" width="120" height="60" as="geometry" />
        </mxCell>
        <mxCell id="QkDVzwYt-QcM5cL4TlEO-11" value="&lt;font style=&quot;font-size: 14px;&quot;&gt;CXR v4&lt;/font&gt;" style="text;html=1;align=center;verticalAlign=middle;whiteSpace=wrap;rounded=0;" vertex="1" parent="QkDVzwYt-QcM5cL4TlEO-13">
          <mxGeometry x="135" y="10" width="80" height="30" as="geometry" />
        </mxCell>
        <mxCell id="QkDVzwYt-QcM5cL4TlEO-35" value="" style="edgeStyle=orthogonalEdgeStyle;rounded=0;orthogonalLoop=1;jettySize=auto;html=1;" edge="1" parent="1" source="QkDVzwYt-QcM5cL4TlEO-19" target="QkDVzwYt-QcM5cL4TlEO-20">
          <mxGeometry relative="1" as="geometry" />
        </mxCell>
        <mxCell id="QkDVzwYt-QcM5cL4TlEO-19" value="Backend" style="rounded=1;whiteSpace=wrap;html=1;" vertex="1" parent="1">
          <mxGeometry x="365" y="-270" width="120" height="60" as="geometry" />
        </mxCell>
        <mxCell id="QkDVzwYt-QcM5cL4TlEO-20" value="Storage" style="rounded=1;whiteSpace=wrap;html=1;" vertex="1" parent="1">
          <mxGeometry x="590" y="-270" width="120" height="60" as="geometry" />
        </mxCell>
        <mxCell id="QkDVzwYt-QcM5cL4TlEO-36" value="" style="endArrow=classic;html=1;rounded=0;exitX=0.447;exitY=0.006;exitDx=0;exitDy=0;exitPerimeter=0;entryX=0.48;entryY=0.998;entryDx=0;entryDy=0;entryPerimeter=0;" edge="1" parent="1" source="QkDVzwYt-QcM5cL4TlEO-19" target="QkDVzwYt-QcM5cL4TlEO-10">
          <mxGeometry width="50" height="50" relative="1" as="geometry">
            <mxPoint x="380" y="-290" as="sourcePoint" />
            <mxPoint x="430" y="-340" as="targetPoint" />
          </mxGeometry>
        </mxCell>
        <mxCell id="QkDVzwYt-QcM5cL4TlEO-37" value="" style="endArrow=classic;html=1;rounded=0;exitX=0.437;exitY=-0.056;exitDx=0;exitDy=0;exitPerimeter=0;" edge="1" parent="1">
          <mxGeometry width="50" height="50" relative="1" as="geometry">
            <mxPoint x="440" y="-330" as="sourcePoint" />
            <mxPoint x="441" y="-270" as="targetPoint" />
          </mxGeometry>
        </mxCell>
        <mxCell id="QkDVzwYt-QcM5cL4TlEO-38" value="" style="endArrow=classic;html=1;rounded=0;exitX=1;exitY=0.25;exitDx=0;exitDy=0;entryX=0;entryY=0.25;entryDx=0;entryDy=0;" edge="1" parent="1" source="QkDVzwYt-QcM5cL4TlEO-5" target="QkDVzwYt-QcM5cL4TlEO-19">
          <mxGeometry width="50" height="50" relative="1" as="geometry">
            <mxPoint x="410" y="-300" as="sourcePoint" />
            <mxPoint x="460" y="-350" as="targetPoint" />
          </mxGeometry>
        </mxCell>
        <mxCell id="QkDVzwYt-QcM5cL4TlEO-39" value="" style="endArrow=classic;html=1;rounded=0;exitX=0;exitY=0.5;exitDx=0;exitDy=0;entryX=1;entryY=0.5;entryDx=0;entryDy=0;" edge="1" parent="1">
          <mxGeometry width="50" height="50" relative="1" as="geometry">
            <mxPoint x="365" y="-230" as="sourcePoint" />
            <mxPoint x="250" y="-230" as="targetPoint" />
          </mxGeometry>
        </mxCell>
      </root>
    </mxGraphModel>
  </diagram>
</mxfile>
